<?xml version="1.0" encoding="UTF-8" standalone="no"?>
<!-- Created with Inkscape (http://www.inkscape.org/) -->

<svg width="173.26384mm" height="102.35655mm" viewBox="0 0 173.26384 102.35655" version="1.1" id="svg1" xmlns:inkscape="http://www.inkscape.org/namespaces/inkscape" xmlns:sodipodi="http://sodipodi.sourceforge.net/DTD/sodipodi-0.dtd" xmlns="http://www.w3.org/2000/svg" xmlns:svg="http://www.w3.org/2000/svg">
  <sodipodi:namedview id="namedview1" pagecolor="#505050" bordercolor="#eeeeee" borderopacity="1" inkscape:showpageshadow="0" inkscape:pageopacity="0" inkscape:pagecheckerboard="0" inkscape:deskcolor="#d1d1d1" inkscape:document-units="mm" />
  <defs id="defs1" />
  <g inkscape:label="Ebene 1" inkscape:groupmode="layer" id="layer1" transform="translate(-17.511071,-63.305182)">
    <g id="g3" inkscape:label="German">
      <path d="m 38.175964,63.30518 c -0.715487,0 -1.422386,0.03616 -2.118733,0.106453 -0.696347,0.0703 -1.382409,0.174428 -2.056206,0.311609 -0.673796,0.137181 -1.335506,0.307324 -1.983341,0.50798 -0.647835,0.200655 -1.281679,0.43226 -1.900142,0.69298 -0.618464,0.260721 -1.221443,0.550273 -1.807125,0.867648 -0.585683,0.317374 -1.154282,0.662393 -1.703772,1.033012 -0.54949,0.370618 -1.07968,0.767072 -1.589567,1.187524 -0.509888,0.420452 -0.999186,0.864827 -1.466061,1.331702 -0.466875,0.466875 -0.911766,0.956172 -1.332218,1.46606 -0.420452,0.509888 -0.816906,1.040594 -1.187525,1.590084 -0.370618,0.54949 -0.71512,1.117573 -1.032495,1.703255 -0.317374,0.585682 -0.607444,1.188661 -0.868164,1.807125 -0.26072,0.618464 -0.492325,1.252824 -0.692981,1.900659 -0.200655,0.647835 -0.370281,1.309545 -0.507462,1.983342 -0.137181,0.673796 -0.24183,1.359341 -0.312126,2.055688 -0.0703,0.696347 -0.106453,1.403246 -0.106453,2.118734 v 61.028835 c 0,0.71549 0.03616,1.42187 0.106453,2.11821 0.0703,0.69635 0.174945,1.38241 0.312126,2.05621 0.137181,0.6738 0.306807,1.33551 0.507462,1.98334 0.200656,0.64784 0.432261,1.28168 0.692981,1.90014 0.26072,0.61847 0.55079,1.22145 0.868164,1.80713 0.317375,0.58568 0.661877,1.15428 1.032495,1.70377 0.370619,0.54949 0.767073,1.0802 1.187525,1.59008 0.420452,0.50989 0.865343,0.99867 1.332218,1.46555 0.466875,0.46687 0.956173,0.91176 1.466061,1.33222 0.509887,0.42045 1.040077,0.8169 1.589567,1.18752 0.54949,0.37062 1.118089,0.71512 1.703772,1.0325 0.585682,0.31737 1.188661,0.60744 1.807125,0.86816 0.618463,0.26072 1.252307,0.49233 1.900142,0.69298 0.647835,0.20066 1.309545,0.37028 1.983341,0.50746 0.673797,0.13718 1.359859,0.24183 2.056206,0.31213 0.696347,0.0703 1.403246,0.10645 2.118733,0.10645 H 170.11003 c 0.71549,0 1.42239,-0.0362 2.11873,-0.10645 0.69635,-0.0703 1.38241,-0.17495 2.05621,-0.31213 0.6738,-0.13718 1.33551,-0.3068 1.98334,-0.50746 0.64784,-0.20065 1.28168,-0.43226 1.90014,-0.69298 0.61847,-0.26072 1.22145,-0.55079 1.80713,-0.86816 0.58568,-0.31738 1.15428,-0.66188 1.70377,-1.0325 0.54949,-0.37062 1.07968,-0.76707 1.58957,-1.18752 0.50988,-0.42046 0.99918,-0.86535 1.46606,-1.33222 0.46687,-0.46688 0.91176,-0.95566 1.33222,-1.46555 0.42045,-0.50988 0.81639,-1.04059 1.187,-1.59008 0.37062,-0.54949 0.71564,-1.11809 1.03302,-1.70377 0.31737,-0.58568 0.60744,-1.18866 0.86816,-1.80713 0.26072,-0.61846 0.49232,-1.2523 0.69298,-1.90014 0.20066,-0.64783 0.37028,-1.30954 0.50746,-1.98334 0.13718,-0.6738 0.24183,-1.35986 0.31213,-2.05621 0.0703,-0.69634 0.10645,-1.40272 0.10645,-2.11821 V 83.969035 c 0,-0.715488 -0.0362,-1.422387 -0.10645,-2.118734 -0.0703,-0.696347 -0.17495,-1.381892 -0.31213,-2.055688 -0.13718,-0.673797 -0.3068,-1.335507 -0.50746,-1.983342 -0.20066,-0.647835 -0.43226,-1.282195 -0.69298,-1.900659 -0.26072,-0.618464 -0.55079,-1.221443 -0.86816,-1.807125 -0.31738,-0.585682 -0.6624,-1.153765 -1.03302,-1.703255 -0.37061,-0.54949 -0.76655,-1.080196 -1.187,-1.590084 -0.42046,-0.509888 -0.86535,-0.999185 -1.33222,-1.46606 -0.46688,-0.466875 -0.95618,-0.91125 -1.46606,-1.331702 -0.50989,-0.420452 -1.04008,-0.816906 -1.58957,-1.187524 -0.54949,-0.370619 -1.11809,-0.715638 -1.70377,-1.033012 -0.58568,-0.317375 -1.18866,-0.606927 -1.80713,-0.867648 -0.61846,-0.26072 -1.2523,-0.492325 -1.90014,-0.69298 -0.64783,-0.200656 -1.30954,-0.370799 -1.98334,-0.50798 -0.6738,-0.137181 -1.35986,-0.241313 -2.05621,-0.311609 -0.69634,-0.0703 -1.40324,-0.106453 -2.11873,-0.106453 z" style="stroke-width:0.264999" id="path2" />
      <rect style="fill:#c00;stroke-width:4.66913" id="rect2" width="173.26367" height="37.53405" x="17.511244" y="95.887894" />
      <path d="M 190.77389,131.74906 H 17.511072 v 14.6848 c 0,0.65365 0.0362,1.29899 0.10645,1.93514 0.0703,0.63617 0.17495,1.26294 0.31213,1.87851 0.13718,0.61557 0.30681,1.22009 0.50746,1.81193 0.20066,0.59185 0.43226,1.17092 0.69298,1.73593 0.26072,0.56502 0.55079,1.11589 0.86817,1.65095 0.31737,0.53506 0.66187,1.05452 1.03249,1.55652 0.37062,0.502 0.76707,0.98686 1.18753,1.45266 0.42045,0.46583 0.86534,0.91237 1.33221,1.3389 0.46688,0.42652 0.95618,0.83296 1.46607,1.21708 0.50988,0.38411 1.04007,0.7463 1.58956,1.08489 0.54949,0.33859 1.11809,0.65332 1.70377,0.94327 0.58569,0.28994 1.18867,0.55494 1.80713,0.79313 0.61846,0.23819 1.25231,0.44978 1.90014,0.63309 0.64784,0.18332 1.30955,0.33828 1.98334,0.46361 0.6738,0.12532 1.35986,0.22093 2.05621,0.28515 0.69634,0.0642 1.40325,0.0973 2.11873,0.0973 H 170.10952 c 0.71549,0 1.42239,-0.0331 2.11873,-0.0973 0.69635,-0.0642 1.38241,-0.15983 2.05621,-0.28515 0.6738,-0.12533 1.33551,-0.28029 1.98334,-0.46361 0.64784,-0.18331 1.28168,-0.3949 1.90014,-0.63309 0.61847,-0.23819 1.22145,-0.50319 1.80713,-0.79313 0.58568,-0.28995 1.15428,-0.60468 1.70377,-0.94327 0.54949,-0.33859 1.07968,-0.70078 1.58957,-1.08489 0.50988,-0.38412 0.99918,-0.79056 1.46606,-1.21708 0.46687,-0.42653 0.91176,-0.87307 1.33222,-1.3389 0.42045,-0.4658 0.81639,-0.95066 1.187,-1.45266 0.37062,-0.502 0.71564,-1.02146 1.03302,-1.55652 0.31736,-0.53506 0.60744,-1.08593 0.86816,-1.65095 0.26072,-0.56501 0.49232,-1.14408 0.69298,-1.73593 0.20066,-0.59184 0.37028,-1.19636 0.50746,-1.81193 0.13718,-0.61557 0.24183,-1.24234 0.31213,-1.87851 0.0703,-0.63615 0.10645,-1.28149 0.10645,-1.93514 z" style="fill:#fc0;stroke-width:0.253289" id="path3-2" inkscape:export-filename="path3-2.svg" inkscape:export-xdpi="96" inkscape:export-ydpi="96" />
    </g>
  </g>
</svg>
