<svg class="OW2Logo-svg OW2Logo-svg--dark" xmlns="http://www.w3.org/2000/svg" viewBox="0 0 50 36.29"><path d="M18.15 5.18a13 13 0 0 1 8.51 3.19l3.67-3.67A18.15 18.15 0 0 0 6 4.7l3.63 3.67a13 13 0 0 1 8.52-3.19z" fill="#333f49"></path><path d="M31.43 5.78l-3.67 3.67a13 13 0 0 1 1.7 15l-7.27-7-3.28-7.9v11.89l7.2 6.93a12.95 12.95 0 0 1-15.93 0l7.2-6.93V9.55l-3.28 7.92-7.27 7a13 13 0 0 1 1.7-15L4.86 5.78a18.15 18.15 0 1 0 26.57 0z" fill="#333f49"></path><path d="M48.47 10.23H39a22.39 22.39 0 0 0-4.65-7.41L32.7 4.51a19.91 19.91 0 0 1 0 27.27l1.69 1.69A22.29 22.29 0 0 0 39 26.06h9.43A1.53 1.53 0 0 0 50 24.53V11.76a1.53 1.53 0 0 0-1.53-1.53z" fill="#f06414"></path><path d="M42.88 21.18l3.76-3.55a5.71 5.71 0 0 0 .64-.66 2.15 2.15 0 0 0 .44-1.18v-.85a1.58 1.58 0 0 0 0-.38 2.06 2.06 0 0 0-.14-.44l-6.36 6c-.2.19-.41.38-.6.6a1.92 1.92 0 0 0-.48 1.28v1.34h6.49a1.21 1.21 0 0 0 .7-.22 1.59 1.59 0 0 0 .67-1.45v-.49zM46.9 13.3a1.38 1.38 0 0 0-.9-.3h-3.78a1.57 1.57 0 0 0-.37 0 1.89 1.89 0 0 0-1.1.94 2.61 2.61 0 0 0-.36 1.4v1h2.15v-1.23H45z" fill="#fff"></path><path d="M31.54 33.26h-.13v.19h-.06v-.51h.21a.14.14 0 0 1 .15.16.15.15 0 0 1-.11.16l.12.19h-.08zm-.13-.06h.14a.1.1 0 0 0 0-.2h-.14z" fill="#333f49"></path><path d="M31.52 33.68a.49.49 0 0 1-.52-.48.48.48 0 1 1 1 0 .49.49 0 0 1-.48.48zm0-.9a.41.41 0 0 0-.41.42.41.41 0 0 0 .41.41.41.41 0 0 0 .42-.41.42.42 0 0 0-.42-.42z" fill="#333f49"></path></svg>