<svg xmlns="http://www.w3.org/2000/svg" width="141.23" height="35" viewBox="0 0 141.23 35"><rect class="svg__rect" x="0" y="0" width="87.01" height="35" fill="#EA4560"/><rect class="svg__rect" x="85.01" y="0" width="56.219999999999985" height="35" fill="#C1D72F"/><path class="svg__text" d="M13.78 19.42L13.78 19.42L15.27 19.42Q15.27 20.15 15.75 20.55Q16.23 20.95 17.12 20.95L17.12 20.95Q17.90 20.95 18.29 20.63Q18.68 20.32 18.68 19.80L18.68 19.80Q18.68 19.24 18.28 18.94Q17.89 18.63 16.85 18.32Q15.82 18.01 15.21 17.63L15.21 17.63Q14.05 16.90 14.05 15.72L14.05 15.72Q14.05 14.69 14.89 14.02Q15.73 13.35 17.07 13.35L17.07 13.35Q17.96 13.35 18.66 13.68Q19.36 14.01 19.75 14.61Q20.15 15.22 20.15 15.96L20.15 15.96L18.68 15.96Q18.68 15.29 18.26 14.91Q17.84 14.54 17.06 14.54L17.06 14.54Q16.33 14.54 15.93 14.85Q15.53 15.16 15.53 15.71L15.53 15.71Q15.53 16.18 15.96 16.50Q16.40 16.81 17.39 17.10Q18.39 17.40 18.99 17.78Q19.60 18.16 19.88 18.65Q20.16 19.13 20.16 19.79L20.16 19.79Q20.16 20.86 19.34 21.49Q18.52 22.12 17.12 22.12L17.12 22.12Q16.20 22.12 15.42 21.77Q14.64 21.43 14.21 20.83Q13.78 20.22 13.78 19.42ZM25.93 22L24.45 22L24.45 13.47L27.71 13.47Q29.14 13.47 29.98 14.21Q30.82 14.96 30.82 16.18L30.82 16.18Q30.82 17.44 30.00 18.13Q29.18 18.83 27.69 18.83L27.69 18.83L25.93 18.83L25.93 22ZM25.93 14.66L25.93 17.64L27.71 17.64Q28.50 17.64 28.92 17.27Q29.33 16.90 29.33 16.19L29.33 16.19Q29.33 15.50 28.91 15.09Q28.49 14.68 27.75 14.66L27.75 14.66L25.93 14.66ZM40.68 22L35.11 22L35.11 13.47L40.64 13.47L40.64 14.66L36.59 14.66L36.59 17.02L40.09 17.02L40.09 18.19L36.59 18.19L36.59 20.82L40.68 20.82L40.68 22ZM46.36 22L44.88 22L44.88 13.47L46.36 13.47L50.18 19.54L50.18 13.47L51.65 13.47L51.65 22L50.16 22L46.36 15.95L46.36 22ZM58.84 22L56.39 22L56.39 13.47L58.91 13.47Q60.04 13.47 60.91 13.97Q61.79 14.48 62.27 15.40Q62.75 16.33 62.75 17.52L62.75 17.52L62.75 17.95Q62.75 19.16 62.27 20.08Q61.78 21.00 60.89 21.50Q60.00 22 58.84 22L58.84 22ZM57.87 14.66L57.87 20.82L58.84 20.82Q60.00 20.82 60.63 20.09Q61.25 19.36 61.26 17.99L61.26 17.99L61.26 17.52Q61.26 16.13 60.66 15.40Q60.06 14.66 58.91 14.66L58.91 14.66L57.87 14.66ZM72.79 22L67.22 22L67.22 13.47L72.75 13.47L72.75 14.66L68.70 14.66L68.70 17.02L72.20 17.02L72.20 18.19L68.70 18.19L68.70 20.82L72.79 20.82L72.79 22Z" fill="#FFFFFF"/><path class="svg__text" d="M101.40 22L99.20 22L99.20 13.60L101.15 13.60L104.11 18.45L106.99 13.60L108.94 13.60L108.97 22L106.79 22L106.76 17.55L104.60 21.17L103.55 21.17L101.40 17.67L101.40 22ZM116.51 22L114.13 22L114.13 13.60L116.51 13.60L116.51 22ZM124.06 22L121.68 22L121.68 13.60L125.52 13.60Q126.67 13.60 127.50 13.98Q128.34 14.35 128.80 15.06Q129.26 15.76 129.26 16.71L129.26 16.71Q129.26 17.62 128.83 18.30Q128.40 18.98 127.61 19.36L127.61 19.36L129.42 22L126.88 22L125.35 19.77L124.06 19.77L124.06 22ZM124.06 15.47L124.06 17.93L125.38 17.93Q126.11 17.93 126.48 17.61Q126.85 17.29 126.85 16.71L126.85 16.71Q126.85 16.12 126.48 15.79Q126.11 15.47 125.38 15.47L125.38 15.47L124.06 15.47Z" fill="#FFFFFF" x="98.01"/></svg>